<?xml version="1.0" encoding="UTF-8"?>
<svg version="1.1" viewBox="0 0 1024 1024" width="1024" height="1024" xmlns="http://www.w3.org/2000/svg">
<path transform="translate(0)" d="m0 0h1024v1024h-1024z" fill="#FAFBFB"/>
<path transform="translate(0)" d="m0 0h484l2 17 2 10v10l-10 3-11 5-11 9 15-8 11-4 14-2 1 1 2 15 2 9 14 10-1 6-5 12-1 1-2 10-7 19-1 9-4 11h2l-1 4 4 13-2 1-2-6-3-2-2-4-4-2-5-2-3-4-6-2-6-7-4-3h-4l2 1v3l4 2-2 1-1 5 2 1-3 1-4 1-2-1v2h3l2 4-3 5v3l-3 3h2l1-2v3l-6 3-2-5-4-1-1 5h5l-1 2h-3v3l2 1-2 1 1 5-3 1h-2l1 6-2 1 2 2 1 2h-2l1 6 5-1-2 3-1 3-3 1-1 3 2 1v2l1 2h-2v3l2 1-1 9v3l8 2 1 3 1 1 4-4 1-3 4-2h4l-1-2h3l2 5 4 2 1 3 3 2 1 3 2 1v4l-3 3 1 9h2l1-5h2l2-4 5-3 4 1-2 3 1 5h4v3l3 1v1l3 1v2l2 4-1 5h-2v5l-8 7 3-1v7l1 6h2v3l10-1-3 2-4 1h-8l-9-3-8 2-3 1h-9l-6-2h-6l-1 3-4-1-1 1-16-1 2 15h-17l-10-3-1 3v9l4 7-8 3-3 6-3 12-2 5-5-1-15-6-8-3 8 10 8 9 5 5 7 6 8 23 6 12 11 12 10 6 13 4h11l10-3h5l-1 9-2 11-9 3-8 1v-2l-13 4-14 1-10-2-6-2 10 4 5 1h17l21-4 5-1-1 6-7 10-8 8-16 9-13 6 13-4 16-7 13-9 9-9 9-13 4-8h2l10 26 3 12 4 40v14l-11-3-3-1h-12l-9 1-3-2-3-9-6-4-5-1-5 1-4-1-12 1v2l-8 1v2l-10 2v2l-11 3-6 3v2l-6 3-1 2-9 5v3l-4 4-3 5-4 10 5-4 5-3 4-1 12-4 10-3 12-2h4l9-1-2 4h2l9-3h3l5-2h2l5-2 6-2 4-3 5-5 6 1v-3l9-1 9 3 6 4 5 7 4 9 4 11 2 19v43l-1 2-1 6-1-2-4 2h-7v3l-2 3 1-1 6-4h3l1 6 1 20-1 9-4 5-1 3 8-5h2l-1 4-1 8 2 5 3 24 2 7-2 2-7 22-4 9-3 10-3 1v3l-5-1-4-7 2 9 2 7-2 6-3 4 9-9h2l9 19 6 10 1 4-1 1-3 26 3 19 2 8 1 8 1 5-3 14-7 48-1 2h-2v7l-4 20-5-1-7-12 1-4-4-4-5-1-1-6 5-17 2-11v-7l-3-10-8-11-6-6v-2h-2l-11-14-10-15-8-13-1-5v-14l-1-4-5-2-10-5-1-1v-10l4-10 7-14 5-5h26l6-3v-10l2-3v-6l1-5-1-4 4-3-1-5-7-7-4-5 1-12-10-24-2-7-6-5-13-3-28-2-11-2h-12l-11 4-10 8-6 8-8 13-4 8-4 10-10 24-10 12-1 4h-2l-2 5-4 4 1 2-4 13-3 1-1 3-7 5h-2v2l-8 5 5-1-4 6v2l3-2v8l-1 4 1 2-2 6 1 4v6l1 5v3l-2 6-2 2-4 11-4 5 6-7 2 2 4-2-1 3h3l-2 5-3 3 6-2v2l3 1-2 4-4 4v6l-6 3 6-1v7l-1 2h-2l1 1 3-1-1 4-2 2 5-2 2 5-5 2-1 4-4 5-4 4-2 5v4l2-7 2-3 5-1v2h2v2l2 2h-3l1 2h6l-4 3-5 3h-2l-2 5-3 4-1 7 1 1v-7l3-4 6 1 4-1-5 4-1 2 10-2 3 1-5 3-2 4 6-4 4 1-1 19-6 65-1 8h-293z" fill="#FAFBFB"/>
<path transform="translate(517,288)" d="m0 0h7l4 2v2l6-2h10l5 6 6-2 4 4-1 4 8-2 3 3 1 2h9l1 4-4 6-1 6 2-1 30-1 2 3v11l-3 15-4 9-4 6-13 6-1 2 5 2-1 9-2 7 6-4 12-11 9-7h7l6 5 5 7 1 5-6 12-7 1-8 5-6 4h-2l-2 4-5 4-16-1-16 8-9 4-15 2 1 3h2l6 14 5 16 4 18 3 10 2 11-2-2-11-27-5-14-7-10-12-13-7-5h-3v11l-5 23-2 10 2 1h-2l1 34 2 24 3 12 4 5 5 1 4-1 8-16 7-6 10-3h3v-3h27v2l4 2 5 6 3 7v20h-2l-1 10-2 6v6l2 5h3l5 1 8-4 5 1v2l8-1 9 1v2l6-1 10-1h6v2l5-1 6 2 14 9 5 5 8 30 1 6v8l-5 12-8 14-7 10-6 14v10l2 12 13-1 3 13-1 4-6 2 13 19 9 14 9 17 10 25 3 14v200h-427l1-19 5-54 1-18-4-1-3 3h-2l2-5 3-2-11 1 1-3 1-1-4-1-2-1-2 4-1 7-2-1 1-7 6-9 8-5h-4v-3l-2-2h3v-2l-3-1-4 1-2 3-2 7h-1l1-8 4-6h2l2-4 3-5 4-3-1-4-5 3-2-1 4-3v-2h-2v2l-2-1 1-2h2l-1-4h2l-1-4-9 1 3-2 7-2-1-7 5-4-1-6-6 3-2-1 5-4 2-4h-3l-1-2-3 2-1-2-6 7-2-1 6-7 3-9 1-6 2 2 1-4v-3l-1-8 1-3-3-1 2-2-2-2h3l-1-3 1-3-1-3 1-7-1-1-3 2 1-4 4-5-6 1 1-2 7-4h2v-2l9-6 3-3 4-13v-3l6-8h2l1-5 10-13 7-18 5-12 8-15 7-11 8-9 9-6 9-3h12l11 2 28 2 13 3 8 7 2 9 8 20 1 3-1 10 12 13-1 5-3 2 1 7-1 5-1 4-1 5v7l-4 3-3 1h-26l-4 4-8 16-3 8v10l15 8 2 4v16l4 8 13 20 10 13 2 4h2l7 8 8 11 3 10-1 13-4 16-2 7v5l7 1 3 5-1 3 7 12 4 1 2-15 2-12h2l3-24 4-26 3-14-1-5-1-8-3-12-2-17 3-24 1-2-14-28-1-4-8 7-3 3-2-1 5-5 1-7-4-11 1-4 5 8 4 1v-3l2-1 5-15 4-10 5-16 2-4-2-5-3-25v-3l-2-1 1-8 2-4-10 6-2-1 6-8 1-12-1-23-8 4-1 2-2-1 3-5-1-2h9l4-1v-5l1-4v-40l-2-19-4-11-4-9-6-8-8-4-10-1h-4v3h-6l-5 5-8 5-5 1-4 2v-2l-8 4v-2l-11 5-2-1 3-4-12 2v-2l-10 3-6 1-18 6-7 3-6 4-2 1 3-9 9-15 9-5v-2l4-2h3l-1-3 13-5 4-2 1-1 10-1v-2l8-1v-2l13-2 7 1 2-1 8 3 4 5 2 7 2 1 9-1h12l14 5-4-46-3-17-7-19-3-7v-3h-2l-1 5-8 12-11 12-10 8-16 8-13 5-8 2-4-1 12-4 21-11 10-9 7-10 2-6-8 3-18 3h-17l-13-4-8-4 2-1 13 5 9 1 13-1 8-3h4v2l16-4 4-20-15 4h-11l-13-4-10-6-9-9-7-11-8-22-3-7-7-6-5-5-9-10-5-6v-2l11 3 17 7 4-17 3-6 5-3 3-1-4-6v-9l2-3 7 1 3 1 17 1-2-7v-8h9l7 1 1-2 4 2 1-4 9 1 3 1h9l10-3 8 2 2 1h8z" fill="#000201"/>
<path transform="translate(380,652)" d="m0 0h12l11 2 28 2 13 3 8 7 2 9 8 20 1 3-1 10 12 13-1 5-3 2 1 7-1 5-1 4-1 5v7l-4 3-3 1h-26l-4 4-8 16-3 8v10l15 8 2 4v16l4 8 13 20 10 13 2 4h2l7 8 8 11 3 10-1 13-4 16-2 7v5l7 1 3 5-1 3 7 12 4 1 2-15 2-12h2l3-24 4-26 3-14-1-5-1-8-3-12-2-17 3-24 1-2-14-28-1-4-8 7-3 3-2-1 5-5 1-7-4-11 1-4 5 8 4 1v-3l2-1 5-15 4-10 5-16 2-4-2-5-3-25v-3l-2-1 1-7 3-2 1 10 1 2 8-6h2v-2l8-7v3l-7 10-6 5-2 1 3 14 3 10 6 13-3 1v-4l-3 3-11 21-4 8-1 9 5 16 6 24-3 11-2 11v10l2 2 4 17v6h2l1 7 2 5v3h2l1-4 4-2 2-4 6-5-1 5-5 5-3 4 1 5 4 1v2l5 1v1h-6l-5 5-3 6-2-1-3 7v5h-2l-1 5-5 19-2 30v29l1 21 1 8-1 7h-218l1-19 5-54 1-18-4-1-3 3h-2l2-5 3-2-11 1 1-3 1-1-4-1-2-1-2 4-1 7-2-1 1-7 6-9 8-5h-4v-3l-2-2h3v-2l-3-1-4 1-2 3-2 7h-1l1-8 4-6h2l2-4 3-5 4-3-1-4-5 3-2-1 4-3v-2h-2v2l-2-1 1-2h2l-1-4h2l-1-4-9 1 3-2 7-2-1-7 5-4-1-6-6 3-2-1 5-4 2-4h-3l-1-2-3 2-1-2-6 7-2-1 6-7 3-9 1-6 2 2 1-4v-3l-1-8 1-3-3-1 2-2-2-2h3l-1-3 1-3-1-3 1-7-1-1-3 2 1-4 4-5-6 1 1-2 7-4h2v-2l9-6 3-3 4-13v-3l6-8h2l1-5 10-13 7-18 5-12 8-15 7-11 8-9 9-6z" fill="#000201"/>
<path transform="translate(550,525)" d="m0 0v3l-2 5v8l4 11 7 7 6 5v2h3l5 5 5 2 3 3h2l7 7-3 1-2 7-3 6-2 9h-3l4 6 5 6-2 5-7 10-1 3 3 8-13 14-4 5 1 6 6 3v3l-2 2 1 4 1 3-1 1v5l2 5-3 7v5l2 4 8 2h12l8-1 5 1 5 13 6 15-14 2-1 1 1 15 12-1-6 8-14 18-16 24-11 21-6 28-12 73-10 68-3 23-1 3h-21v-12l-1-4-1-20v-31l2-28 5-19 3-6 1-6 3-7 2 1 5-8 4-2h3l-3-1v-2l-5-1-1-5 7-10 1-2-6 7-4 3-1 3h-2l-4-11 1-4h-2l-5-23-2-2v-10l2-11 3-11-9-35-2-6 1-8 8-16 9-16h2v4l2-2-7-14-5-20 1-3 6-4 4-5 5-8-3 3h-2l-1 3h-2v2l-10 7-2-3v-10l3-17 3-29 4-23 3-8 1-4 2-1-8-3 2-18 3-8 3-3 5-1v-9l7-14 8-7z" fill="#FAFBFB"/>
<path transform="translate(517,288)" d="m0 0h7l4 2v2l6-2h10l5 6 6-2 4 4-1 4 8-2 3 3 1 2h9l1 4-4 6-1 6 2-1 30-1 2 3v11l-3 15-4 9-4 6-13 6-1 2 5 2-1 9-2 7 6-4 12-11 9-7h7l6 5 5 7 1 5-6 12-7 1-8 5-6 4h-2l-2 4-5 4-16-1-16 8-9 4h-17l-5-2h-2l-1 3-6-2-1-1-1-8-7-1-1 8h-2v2l-3 1-11-1h-8l-2-2v-9l1-5-3-8-7-10-4-6-9-8-2-4-2-2-7-3-3-10-5-4-8-4-5-6h-11l-5 8-2 10-2 2h-12l-3-2h-10l-5 1-6-5-7-8-6-7v-2l11 3 17 7 4-17 3-6 5-3 3-1-4-6v-9l2-3 7 1 3 1 17 1-2-7v-8h9l7 1 1-2 4 2 1-4 9 1 3 1h9l10-3 8 2 2 1h8z" fill="#0E0101"/>
<path transform="translate(484)" d="m0 0h21l3 10-1 2 3 1v9h-2v2l2 1-1 3 2 16 1 9 1-1 4-6 4-2 1-2h2l-1-2v-10l2-6 3-4h2l1-3-1 6-2 4v19l-9 7h-2l8 24v5l5 2v-2l6 1 7-3 5-4-2 4-3 7 3 2v2l6 1 7 7 2 1-1 2-10-7-5-1-11-5-4 10-8 16-4 7-2 1v2h-2l-2 4-4 5-4 1 4 13 4 20v5l-1 3 1 9 5 12 5 14 2 6v7h-2l2 4v6l4 5-9-1-1 8-3 5 1 5 2 1 1 7-3-2-7-1-1 6-3 4-6 13-2 4-2-8v-4h-3l8-7 1-5h2l-1-8-2-1 1-2-4-1 1-1-4-3-4-2v-6l2-1-6 1-4 5h-2l-1 5h-2l-2-10 4-2v-4l-3-1-1-3-3-2-1-3-4-2-1-5-3 3-7 1-1 6-5 2-2-2v-2l-8-3-1-5 3-7-3-1 1-3 1-1-2-2v-2l1-4 2-2 2-3h-3v-2l-2-1 1-3 1-1-3-3 2-2-1-2 1-3h2l1-2 1 1-1-5 1-5-2-1h5l1-1h-5v-5h4l2 1 2 4 2-2h3l-3-1 2-6 3-6-1-3h-3v-2h5l1-3 1 1 1-5v-2l-2-1v-3l-4-1 6-1 10 9v2l7 2 4 4 5 3 4 1 1 4 4 4-3-10 1-3-1-1 3-11 1-9 8-22 1-7 4-8 3-8-1-4-12-8-2-6-2-9-1-10-14 2-13 5-11 6h-3l13-11 13-5 7-1-2-16-2-9z" fill="#FCF5F4"/>
<path transform="translate(517,288)" d="m0 0h7l4 2v2l6-2h10l5 6 6-2 4 4-1 4 8-2 3 3 1 3-11 6-2 2h-5l1-6-5 1-1 3-6 2-4 1-19 4-4-3-13-2h-6l1 1h8l3 2-1 1 10 2h3l2 3-3 2h-14l-1 1h-6l-5-3-5-1v2l5 2 11 9 3 4h-2l-1 2-6-2-1-2-11-1-5-2-3-3-11-4-7-3-3-2v-2h-2v-2h-4v-2h-4v-2l-9-2-7-1-1 3 4 8v3h2l2 4 10 6 12 5 19 7 7 3-1 2h-7l-8-2h-9l-9 1-4-3-7-3-8-6-5-5-5-3h-5l-5-1-1 8-2 2-9-1v-12l5-3 3-1-4-6v-9l2-3 7 1 3 1 17 1-2-7v-8h9l7 1 1-2 4 2 1-4 9 1 3 1h9l10-3 8 2 2 1h8z" fill="#770606"/>
<path transform="translate(484)" d="m0 0h21l3 10-1 2 3 1v9h-2v2l2 1-1 3 2 16 1 9 1-1 4-6 4-2 1-2h2l-1-2v-10l2-6 3-4h2l1-3-1 6-2 4v19l-9 7h-2l8 24v5l5 2v-2l6 1 7-3 5-4-2 4-3 7 3 2v2l6 1 7 7 2 1-1 2-10-7-5-1-11-5-4 10-8 16-4 7-2 1v2h-2l-2 4-4 5-4 1 4 13 4 20v5l-1 3 1 9 5 12 5 14 2 6v7h-2l2 4v6l4 5-9-1-1 8-3 5 1 5 2 1 1 7-3-2-7-1-1 6-3 4-6 13-2 4-2-8v-4h-3l13-12-1-10-10-10 1-2 7 4-1-3h3l1-9 4-15 1-7 3-9-2 6-2-1 1-10-5-3-1-4h-2l-5-10-3-9v-12l-6-7v-2l-4-1 1-3h-2l-1 2-7-7-5-2-1-4-4-2-5-3-4-2 6-1 10 9v2l7 2 4 4 5 3 4 1 1 4 4 4-3-10 1-3-1-1 3-11 1-9 8-22 1-7 4-8 3-8-1-4-12-8-2-6-2-9-1-10-14 2-13 5-11 6h-3l13-11 13-5 7-1-2-16-2-9z" fill="#780606"/>
<path transform="translate(575,305)" d="m0 0 5 1-1 4-4 8v3l2-1 30-1 2 3v11l-3 15-4 9-3 4-13 2-4 2-9 1-8 6-13 5-2 1h-8l-9 1 1-3 30-15 4-3 5-2 3-5 1-9v-6l-1-3-3-1-2 9-1 1-10 2-1 2h-2l-2 5-3 1-2 5-6 4-6 1h-8l-6-3-6-2-3-3-2-1-2-3-4-5 1-3 4 1 2 2 5-3v-9l3-6 10-2 1-4 1 2 4-1 2 1v-2l4 1 12-3 1-2 6-2h7l-1-5 4-3z" fill="#760505"/>
<path transform="translate(627,480)" d="m0 0 9 1 5 1h2v2h5l7 2v2l5 1 7 1 1 2 7 1v2h8l3 2 20 3v1l-17 3-11 4-10 1-1 2h-10l-1 1-31 3-17 2-20 2-5 1 3-3h2v-10l4-11 5-5 5-4 12-5 10-1z" fill="#000201"/>
<path transform="translate(484)" d="m0 0h21l3 10-1 2 3 1v9h-2v2l2 1-1 3 2 16 1 9 1-1 4-6 4-2 1-2h2l-1-2v-10l2-6 3-4h2l1-3-1 6-2 4v19l-9 7h-2l8 24v5l5 2v-2l6 1 7-3 5-4-2 4-3 7 3 2v2l6 1 7 7 2 1-1 2-10-7-5-1-11-5-4 10-5 10-2-1 2-12 1-1-2-1v-2h-7l-4-2-3 5h-2l-1 4v-5l4-8 3-8-1-4-12-8-2-6-2-9-1-10-14 2-13 5-11 6h-3l13-11 13-5 7-1-2-16-2-9z" fill="#150909"/>
<path transform="translate(613,367)" d="m0 0h7l6 5 2 3v6l2 1-3 8-2 2-5-1-5-2-3 1v5l-4 2h-2l-3 3-7-1v2l-5 1 2 4h-6l-5-2-8-2 1-5h3v-4l3-1v-3l-8-1-5 6-1 2h-2l1 3h-2v4l-2 2-4 1v-3l2-10 3-7 2-7 3-7 8-2h8l5 3-1 9-2 7 6-4 12-11z" fill="#760505"/>
<path transform="translate(406,305)" d="m0 0 7 1 3 1 15 1-2 3 1 4 3 7v3h2l2 4 10 6 12 5 19 7 7 3-1 2h-7l-8-2h-9l-9 1-4-3-7-3-8-6-5-5-5-3h-5l-5-1-1 8-2 2-9-1v-12l5-3 3-1-4-6v-9z" fill="#770505"/>
<path transform="translate(534,88)" d="m0 0 4 2-1 7 4 1 1 3-6-1 1 5-1 3-4 1-1 2h-3l-2 5h2l-1 3-2 2 1 3-6 1v2l1-2 2 1h3v2l2 2-1 3h-6l-4 9v4l2 1-2 9 1 1-1 4v1l4 1v3l-3 2-2 4h-3l2 13 3 8 1 4h2l-1 3 3 8v5l3-1-1 4 2 5v3h-2l1 9 7 3 2 5 1 5-6 1-4-5-2 2 1-5-3 1 1 6-4 1-2 7v2l3 1 2 3-1 4 4 7-1 3 1 3-3-1-3-5v-2l-4-1 2-2-4-2h-2l-9 19-1 3-3 1 1-5 7-14 3-7h7l2 2v-6l-3-1-1-6 3-4 2-8h8l-4-4v-7l-1-3h2l-1-7-3-9-6-17-3-6-1-11 1-1-1-10-5-23-1-5 4-1 2-4 4-5h2l-1-4h3l14-28z" fill="#FCF5F4"/>
<path transform="translate(491,980)" d="m0 0h2l4 8 6-1 3 21 2 6 1 10h-31v-43z" fill="#FBFBFB"/>
<path transform="translate(484)" d="m0 0h21l3 10-1 2 3 1v9h-2v2l2 1-1 3 2 20-2-2-2-14-1 2-10 4v2l-11 3-5 1-11 4-11 6h-3l13-11 13-5 7-1-2-16-2-9z" fill="#050706"/>
<path transform="translate(505)" d="m0 0h38l-6 7-4 3-1 9-4 1-1 3-2 2-1 5v12h-2l-1 3-4 1-5 10-1-3-3-27v-4h2l-1-9-2-1z" fill="#F5F5F5"/>
<path transform="translate(504,198)" d="m0 0 4 1 1 8-1 4-1 5 2 1-3 9-1 5-3 9-3 1-3-5-2-1v-2l-2-1v-4l-7-3-4 1-3-2v-2h-2l-3-4 3-3h2l2-4-2-1v2h-4v-2l8-4h2v2h2l-1 6 2 1 1-3h2l1 4h-4l3 2 2-1v2h6v-8h2v2h2l2-5 2-2v-3h-2l-1-4z" fill="#FBFBFB"/>
<path transform="translate(569,306)" d="m0 0h5v3l-4 2 1 2-1 2-10 2-4 3-13 3-3-2v2h-6l-1-1v4l-7 1-3-1v-2h-2l-2-3-2 2-1-2-10-2-2-3h-8l-5-1 4-2 11 1 10 2 4 2 17-4 10-3 3-3h3v5l5-1 8-5z" fill="#140101"/>
<path transform="translate(510,72)" d="m0 0 5 3-1 6-5 12-1 1-2 10-7 19-1 9-4 11h2l-1 4 4 13-2 1-2-6-3-2-2-4-4-2-5-2-3-4-6-2-1-3 8 1 2 1v2h2l1-2 2 7 6 2-1-7 2-3h2v-6l-3 1-3-7-2 1 2-7-1-4 2-2 3 1 1-3 2 1v2h2v-4l3-5 1-4 1-3 3 1-2-5 1-3h2l1-7-3-3v-3h2l1 1 1-2 2-1-2-2z" fill="#FCF5F4"/>
<path transform="translate(287,783)" d="m0 0 2 1-5 6 1 1 3-2v8l-1 4 1 2-2 6 1 4v6l1 5v3l-2 6-3 2-1-9-2-1-1-6-1-2-2-12-1-7 2-3 2-5 2-2-2-2 3-2z" fill="#F8F0EF"/>
<path transform="translate(524,220)" d="m0 0 3 1v3h-2l1 9 7 3 2 5 1 5-6 1-4-5-2 2 1-5-3 1 1 6-4 1-2 7v2l3 1 2 3-1 4 4 7-1 3 1 3-3-1-3-5v-2l-4-1 2-2-4-2h-2l-9 19-1 3-3 1 1-5 7-14 3-7h7l2 2v-6l-3-1-1-6 3-4 2-8h8l-4-4v-7l-1-3h2z" fill="#FAF3F2"/>
<path transform="translate(547,76)" d="m0 0v3l-3 4-1 4 3 2v2l6 1 7 7 2 1-1 2-10-7-5-1-11-5-4 10-5 10-2-1 2-12h2l2-8-3-1v-2l4-1v-2l6 1 7-3z" fill="#000101"/>
<path transform="translate(530,17)" d="m0 0 1 4-3 4v21l-9 7h-2l1 5-5-3 1-5 8-8h2l-1-2v-10l2-6 3-4h2z" fill="#000201"/>
<path transform="translate(431,101)" d="m0 0 2 1-1 11-1 3 6 11 5 7-1 2-8-9-4-7v-6l1-4-5 1-7 2-24 5h-5l4-2 22-7 12-2 2-4h2z" fill="#000201"/>
<path transform="translate(510,72)" d="m0 0 5 3-1 6-5 12-1 1-2 10-5 13-3 4-3-1h2l-1-4 2-2v-4l3-5 1-4 1-3 3 1-2-5 1-3h2l1-7-3-3v-3h2l1 1 1-2 2-1-2-2z" fill="#FCF5F4"/>
<path transform="translate(499,268)" d="m0 0 2 1-8 7 3-1v7l1 6h2v3l10-1-3 2-4 1h-8l-4-3h6l-2-6-4-1v-2l-4-1-2-1v-2l5-1 1-2h2v-3z" fill="#FDF5F4"/>
<path transform="translate(282,844)" d="m0 0 2 2 4-2-1 3h3l-2 5-5 4-5-1-8 3-4-1 5-5 6-2z" fill="#FCF6F5"/>
<path transform="translate(287,872)" d="m0 0h1v7l-1 2h-2l1 1 3-1-1 4-4 4h-3v2l-4-1 3-9 1-2-3-1v-2l-2-2zm-11 6 2 1z" fill="#E7E1E0"/>
<path transform="translate(524,66)" d="m0 0h4l3 9 4 1v2l2 1h-2l1 5-6-2v2l-5-2-2-10v-5z" fill="#DFD8D8"/>
<path transform="translate(509,261)" d="m0 0h7l6 4 3 6-1 3 1 3-3-1-3-5v-2l-4-1 2-2-4-2h-2l-9 19-1 3-3 1 1-5 7-14z" fill="#FDF5F4"/>
<path transform="translate(285,903)" d="m0 0 1 2h2v2l2 2h-3l1 2h6l-4 3-5 3h-2l-1 2h-2l-2-5v-6l3-4z" fill="#CAC6C5"/>
<path transform="translate(494,40)" d="m0 0 3 1 2 15 1 7h-2l-1 4h-2v-2l-1-1-2-4v-3l2-1-1-9v-3l-4-2v-1z" fill="#FCF8F7"/>
<path transform="translate(459,213)" d="m0 0 6 2 11 8 9 10 7 1 3 4-11-2-2 4-4 3 2-4-1-6-7-9-8-7-5-3z" fill="#6D0505"/>
<path transform="translate(289,885)" d="m0 0h2l2 5-5 2-1 4-4 5-4 1-3-1v-5l3-4 8-1v-3l2-2z" fill="#D9D3D2"/>
<path transform="translate(398,653)" d="m0 0 31 1 13 3 8 4 3 3 1 8-2-2-2-5-6-5-13-3-28-2-5-1z" fill="#FDF5F4"/>
<path transform="translate(296,931)" d="m0 0 5 1-1 19-2-2-2 3-2-1 3-7-3-3-2 1 1-8z" fill="#FBF9F8"/>
<path transform="translate(289,853)" d="m0 0h2v2l3 1-2 4-4 4v6l-4 1-1-3h-2v-3l3-1-2-6 3-1v-2z" fill="#F2ECEB"/>
<path transform="translate(585,368)" d="m0 0 5 2 2 2-1 9 3-1 2-1 1-2 3 2-10 9-4 1 2-16-4-2z" fill="#FCF5F4"/>
<path transform="translate(576,313)" d="m0 0 1 2 2 1-1 2 3-1h2l2-2h3v2l8 1 9-2 3 2-1 2-30 1-3 1 1-7z" fill="#FDF5F4"/>
<path transform="translate(607,334)" d="m0 0h1l-1 11-4 11-3-4-1-3v-4l2-2h3l-2-5z" fill="#0E0101"/>
<path transform="translate(462,267)" d="m0 0 12 4 2 5 3 1-1 2-6-2-4-1-1-2-8-2z" fill="#E5D6D5"/>
<path transform="translate(495,313)" d="m0 0 11 1 10 2 3 3-2 4-1-2-10-2-2-3h-8l-5-1z" fill="#0F0101"/>
<path transform="translate(365,340)" d="m0 0 11 3 5 2v3l-6 3-4-2-6-7z" fill="#010101"/>
<path transform="translate(458,128)" d="m0 0 5 1 9 8v2l7 2 4 4 5 3h-3l-2-1-1 2-7-7-5-2-1-4-4-2-5-3-4-2z" fill="#090101"/>
<path transform="translate(584,587)" d="m0 0 2 1-4 9-2 9h-5l1-11 4-6 2 1z" fill="#FCF6F5"/>
<path transform="translate(613,367)" d="m0 0h7l6 5 2 5-4-2-3-4h-7l-9 5-2 4-3 1v-3l7-7z" fill="#110101"/>
<path transform="translate(593,29)" d="m0 0 9 4 16 3v1h-12l-15-2-8 2 4-4z" fill="#040605"/>
<path transform="translate(530,67)" d="m0 0 2 1 4 6 7 3 1 3-2 2-6 1-2-7h-4l-1-3z" fill="#FBF8F8"/>
<path transform="translate(510,72)" d="m0 0 5 3-1 6-4 10-3-1 1-6-3-3v-3h2l1 1 1-2 2-1-2-2z" fill="#F9F2F1"/>
<path transform="translate(551,292)" d="m0 0 7 1 4 5h6l2 1v5l2 1h-3l-1-4-10 1-1-6-3-1-4 1-1 2-1-3z" fill="#FDF5F4"/>
<path transform="translate(519,238)" d="m0 0h5l-2 4 1 4-4 1-2 7v2l3 1 2 3-3 3-1-6-3-1-1-6 3-4z" fill="#FDF5F4"/>
<path transform="translate(484,236)" d="m0 0h6l2 2-7 3-3 4h-2l-1 5h-2l-1-6 7-6z" fill="#ECD6D5"/>
<path transform="translate(406,305)" d="m0 0 2 1-1 6 2 8 3 3v3l-5-1v-3l-3-5v-9z" fill="#0D0101"/>
<path transform="translate(519,52)" d="m0 0 5 1 1 6 1 3 3 1-1 2-5 1-4-11z" fill="#C6C1C0"/>
<path transform="translate(499,268)" d="m0 0 2 1-8 7-4 5-5-2v-2l5-1 1-2h2v-3z" fill="#F1E3E2"/>
<path transform="translate(448,213)" d="m0 0h3v2l8 4-5 3-6 2v-6-3z" fill="#FBFBFB"/>
<path transform="translate(272,851)" d="m0 0 5 2 4-2 1 3 2 1-4 1-2-1-8 3-4-1 5-5z" fill="#F3ECEB"/>
<path transform="translate(530,92)" d="m0 0 1 3-2 5-4 9-2-1 2-12h2l1-2z" fill="#100101"/>
<path transform="translate(495,56)" d="m0 0h4l1 7h-2l-1 4h-2v-2l-1-1-2-4v-3z" fill="#FCF6F6"/>
<path transform="translate(431,301)" d="m0 0 2 4v3h-17l-10-3v-1h7l4 2 9 1v-3h4z" fill="#FCF5F4"/>
<path transform="translate(519,286)" d="m0 0 8 1 3 2 9-1 5 1v1l-16 2v-2l-4-1h-11l2-2z" fill="#FDF5F4"/>
<path transform="translate(288,881)" d="m0 0 1 3-5 5h-3v2l-4-1 2-6 5-1 2 1v-2z" fill="#D2CCCB"/>
<path transform="translate(481,287)" d="m0 0h2l1 3-10 3h-9l-3-2 2-2 2 1h7l6-2 2 1z" fill="#FCF5F4"/>
<path transform="translate(528,84)" d="m0 0 5 1v2l2 1-3 7-2-1-2 1 1-7-3-1v-2z" fill="#040101"/>
<path transform="translate(582,408)" d="m0 0 7 1 4 3 3 2-11-1-5-1-2-3z" fill="#000101"/>
<path transform="translate(334,704)" d="m0 0h2l-1 4-3 8-1-2h-2v3h-2l2-7z" fill="#F1EBEA"/>
<path transform="translate(513,200)" d="m0 0 1 3-3 9-1 5-3-1v-8h3z" fill="#FAEFEE"/>
<path transform="translate(296,931)" d="m0 0 2 3-1 2 2-1v4h-2l1 3h-3-3l1-8z" fill="#E0D9D8"/>
<path transform="translate(281,923)" d="m0 0 6 1 4-1-5 4-6 2 1 3-3 2v-7z" fill="#EAE5E4"/>
<path transform="translate(436,290)" d="m0 0h3v2h8v2l-16-1v7l-2-2 1-6z" fill="#FDF5F4"/>
<path transform="translate(303,761)" d="m0 0h2l1 4-2 4h-2l-1 3-4 3-2-1 2-4h2l3-4z" fill="#F6EFEE"/>
<path transform="translate(493,180)" d="m0 0h2l2 4 2 5v3l-3-1v-3l-4-1-1-4h2z" fill="#FBFBFB"/>
<path transform="translate(517,53)" d="m0 0h2l5 14v5l-3-4-4-13zm8 11v3z" fill="#FCF8F7"/>
<path transform="translate(615,367)" d="m0 0h5l6 5 2 5-4-2-3-4-8-1z" fill="#180101"/>
<path transform="translate(501,66)" d="m0 0 7 4 1 3-3 1-1 2-2-3-1-3-2-1z" fill="#FCF5F4"/>
<path transform="translate(553,70)" d="m0 0 2 1-4 4-1 4-2 2-1 3h-2v2h-2l1-5 3-3 3-5z" fill="#C7C3C2"/>
<path transform="translate(523,891)" d="m0 0 2 4-3 9-1 2-3-1 2-7z" fill="#EEE9E8"/>
<path transform="translate(372,343)" d="m0 0 7 1 2 1v3l-5 1-4-3z" fill="#070101"/>
<path transform="translate(475,244)" d="m0 0 2 4 1 4-4 5-3-1-1-7 2-3 1 7 2-3z" fill="#FDF5F4"/>
<path transform="translate(519,265)" d="m0 0 6 5-1 4 1 3-3-1-3-5v-2l-2-1z" fill="#E6CDCC"/>
<path transform="translate(510,134)" d="m0 0 4 1-1 4 1 2-2 2-4-2 1-5z" fill="#FBFCFC"/>
<path transform="translate(505,627)" d="m0 0m-10 1h8l1 2-8 4-1 2-2-1 3-5z" fill="#070908"/>
<path transform="translate(631,581)" d="m0 0h3v2l7 1v1l-11 1v-2l-4 1v-3z" fill="#F5EEED"/>
<path transform="translate(476,140)" d="m0 0 4 2 3 3 5 3h-3l-2-1-1 2-7-7z" fill="#3F0303"/>
<path transform="translate(483,21)" d="m0 0h4l1 10-2 4h-1z" fill="#DED9D8"/>
<path transform="translate(275,931)" d="m0 0h2l-2 6-2 3h-4l2-4z" fill="#E5DEDD"/>
<path transform="translate(285,911)" d="m0 0h9l-4 3-5 3h-2l1-5z" fill="#FCF8F7"/>
<path transform="translate(530,67)" d="m0 0 2 1 4 6-4 2h-2l-1-3z" fill="#FCF7F6"/>
<path transform="translate(466,263)" d="m0 0 2 2-1 2 5 1-2 1-1 2-2-2-5-2 2-2zm-5 4 1 2-3-1z" fill="#FCF5F5"/>
<path transform="translate(287,864)" d="m0 0h1v6l-4 1-1-3h-2v-3z" fill="#EAE4E3"/>
<path transform="translate(282,836)" d="m0 0 1 3-4 8-3 2-2-2h2v-2h2l1-4h2z" fill="#FDF5F4"/>
<path transform="translate(560,97)" d="m0 0 5 2 3 2 5 1v2l-7-1-4-2z" fill="#000201"/>
<path transform="translate(406,305)" d="m0 0 2 1-1 6-1 5h-2v-9z" fill="#0A0101"/>
<path transform="translate(602,34)" d="m0 0h8l8 2v1h-12l-4-1z" fill="#000201"/>
<path transform="translate(299,941)" d="m0 0h1v10l-2-2-2 3-2-1 3-7 2-1z" fill="#CCC6C5"/>
<path transform="translate(285,903)" d="m0 0 1 2h2v2l-6-1-2 4h-2l2-5zm-3 4h2l-1 2z" fill="#FCF5F4"/>
<path transform="translate(442,132)" d="m0 0h8l-3 2-4 1v9h-1l-1-8z" fill="#FCF5F4"/>
</svg>
